<svg width="24" height="24" viewBox="0 0 24 24" fill="none" xmlns="http://www.w3.org/2000/svg">
<g clip-path="url(#clip0_367_1873)">
<path d="M12 9C9.519 9 7.5 6.981 7.5 4.5C7.5 2.019 9.519 0 12 0C14.481 0 16.5 2.019 16.5 4.5C16.5 6.981 14.481 9 12 9ZM22.922 9.681C22.236 9.109 21.343 8.873 20.406 9.045L16.284 10.048C14.381 10.394 13 12.049 13 13.984V21.786L12 21.968L11 21.786V13.984C11 12.049 9.619 10.395 7.773 10.061L3.536 9.033C2.655 8.871 1.762 9.11 1.078 9.681C0.392 10.253 0 11.092 0 11.984V21.818L12 24L24 21.818V11.984C24 11.092 23.607 10.253 22.922 9.681Z" fill="#332969"/>
</g>
<defs>
<clipPath id="clip0_367_1873">
<rect width="24" height="24" fill="white"/>
</clipPath>
</defs>
</svg>
