<svg width="24" height="24" viewBox="0 0 24 24" fill="none" xmlns="http://www.w3.org/2000/svg">
<g clip-path="url(#clip0_367_1927)">
<path d="M15.0338 4H13.0338V0H15.0338V4ZM11.0338 0H9.03382V4H11.0338V0ZM7.03382 0H5.03382V4H7.03382V0ZM0.00782044 24H20.0078V22H0.00782044V24ZM24.0008 13.143C23.9683 14.1804 23.5319 15.1641 22.7848 15.8845C22.0376 16.605 21.0387 17.0052 20.0008 17H16.8518C16.1306 18.0691 15.3172 19.0729 14.4208 20H5.60082C2.80098 17.0502 0.87602 13.3803 0.0408204 9.4C-0.0275161 8.9912 -0.00554558 8.57239 0.10519 8.17299C0.215925 7.77358 0.412741 7.40325 0.68182 7.088C0.967934 6.74736 1.32512 6.47346 1.72832 6.2855C2.13152 6.09755 2.57097 6.0001 3.01582 6H17.0008C17.4458 6.00042 17.8853 6.09821 18.2885 6.2865C18.6917 6.4748 19.0489 6.74905 19.3348 7.09C19.6038 7.40494 19.8006 7.77489 19.9115 8.17393C20.0224 8.57297 20.0447 8.99144 19.9768 9.4C19.9418 9.6 19.8958 9.8 19.8538 10H20.0008C22.4698 10 24.0008 11.205 24.0008 13.143ZM22.0008 13.143C22.0008 12.385 21.3298 12 20.0008 12H19.3138C18.9691 13.0327 18.5417 14.0359 18.0358 15H20.0008C20.5086 15.0054 20.999 14.8158 21.3711 14.4703C21.7432 14.1248 21.9686 13.6497 22.0008 13.143Z" fill="#332969"/>
</g>
<defs>
<clipPath id="clip0_367_1927">
<rect width="24" height="24" fill="white"/>
</clipPath>
</defs>
</svg>
