<svg width="24" height="24" viewBox="0 0 24 24" fill="none" xmlns="http://www.w3.org/2000/svg">
<g clip-path="url(#clip0_367_1904)">
<path d="M21 5H19V3C19 1.346 17.654 0 16 0H8C6.346 0 5 1.346 5 3V9H3C1.346 9 0 10.346 0 12V24H24V8C24 6.346 22.654 5 21 5ZM6 19H4V17H6V19ZM6 15H4V13H6V15ZM11 19H9V17H11V19ZM11 15H9V13H11V15ZM11 11H9V9H11V11ZM11 7H9V5H11V7ZM15 19H13V17H15V19ZM15 15H13V13H15V15ZM15 11H13V9H15V11ZM15 7H13V5H15V7ZM20 19H18V17H20V19ZM20 15H18V13H20V15ZM20 11H18V9H20V11Z" fill="#332969"/>
</g>
<defs>
<clipPath id="clip0_367_1904">
<rect width="24" height="24" fill="white"/>
</clipPath>
</defs>
</svg>
