<svg width="24" height="24" viewBox="0 0 24 24" fill="none" xmlns="http://www.w3.org/2000/svg">
<g clip-path="url(#clip0_367_1900)">
<path d="M15.6 6.717C15.853 6.198 16.001 5.618 16.001 5H16.582C17.918 5 19.001 6.083 19.001 7.419V10.418C18.357 10.14 17.663 10.002 16.967 10.008V9.166C16.871 8.166 16.361 7.293 15.6 6.717ZM7.03195 10.003V9.188C7.12295 8.179 7.63495 7.297 8.40095 6.717C8.14795 6.198 7.99995 5.618 7.99995 5H7.41895C6.08295 5 4.99995 6.083 4.99995 7.419V10.412C4.99995 10.412 5.00195 10.413 5.00495 10.415C5.64795 10.137 6.33995 9.999 7.03195 10.003ZM10.331 11.275L11.424 12.281C11.75 12.581 12.251 12.581 12.577 12.281L13.641 11.302C14.057 10.93 14.517 10.639 15.001 10.428V10.42C15.001 9.084 13.918 8.001 12.582 8.001H11.421C10.085 8.001 9.00195 9.084 9.00195 10.42C9.47595 10.627 9.92595 10.912 10.332 11.275H10.331ZM8.00095 4C9.10595 4 10.001 3.105 10.001 2C10.001 0.895 9.10595 0 8.00095 0C6.89595 0 6.00095 0.895 6.00095 2C6.00095 3.105 6.89595 4 8.00095 4ZM12.001 7C13.106 7 14.001 6.105 14.001 5C14.001 3.895 13.106 3 12.001 3C10.896 3 10.001 3.895 10.001 5C10.001 6.105 10.896 7 12.001 7ZM16.001 4C17.106 4 18.001 3.105 18.001 2C18.001 0.895 17.106 0 16.001 0C14.896 0 14.001 0.895 14.001 2C14.001 3.105 14.896 4 16.001 4ZM18.436 15.687L15.949 18.219C15.827 16.994 15.28 15.841 14.362 15.007L13.488 14.213L15.301 12.567C16.318 11.644 17.969 11.846 18.708 13.1C19.188 13.915 19.039 14.958 18.436 15.686V15.687ZM22.501 5C21.673 5 21.001 5.672 21.001 6.5V14H20.99C21.04 15.022 20.723 16.061 20.034 16.893L16.001 20.981V23C16.001 23.552 16.449 24 17.001 24H20.31C20.591 24 20.859 23.882 21.048 23.674L21.646 23.02C23.161 21.361 24.001 19.196 24.001 16.95V6.5C24.001 5.672 23.329 5 22.501 5ZM13.018 16.487L8.70095 12.567C7.68395 11.644 6.03295 11.846 5.29395 13.1C4.81395 13.915 4.96295 14.958 5.56595 15.686L8.11395 18.259C8.49795 18.647 8.49695 19.273 8.11095 19.659C7.72195 20.048 7.09095 20.046 6.70395 19.655L3.96895 16.892C3.27995 16.06 2.96395 15.021 3.01295 13.999H3.00195V6.499C3.00195 5.671 2.32995 4.999 1.50195 4.999C0.673953 4.999 0.00195312 5.671 0.00195312 6.499V16.949C0.00195312 19.195 0.841953 21.361 2.35695 23.019L2.95495 23.673C3.14395 23.88 3.41195 23.999 3.69295 23.999H13.002C13.554 23.999 14.002 23.551 14.002 22.999V18.707C14.002 17.861 13.645 17.055 13.019 16.486L13.018 16.487Z" fill="#332969"/>
</g>
<defs>
<clipPath id="clip0_367_1900">
<rect width="24" height="24" fill="white"/>
</clipPath>
</defs>
</svg>
