<svg width="24" height="24" viewBox="0 0 24 24" fill="none" xmlns="http://www.w3.org/2000/svg">
<g clip-path="url(#clip0_367_1877)">
<path d="M23.9389 10.654L20.8679 2.31903C20.4449 1.16803 19.2339 0.538034 18.0439 0.854034L13.0009 2.19903V1.00003C12.9949 -0.307966 11.0069 -0.306966 11.0009 1.00003V2.73203L5.74693 4.13303C4.49193 4.46803 3.47393 5.39603 3.02393 6.61503L0.0629338 14.654C0.0219338 14.765 0.000933764 15.301 0.000933764 15.301C-0.0770662 19.225 4.74993 21.568 7.59893 18.763C8.48993 17.917 9.00093 16.727 9.00093 15.499C9.00093 15.499 8.97993 14.767 8.94093 14.657L5.87093 6.21603C5.99493 6.15303 6.12593 6.10203 6.26293 6.06603L11.0009 4.80203V22H5.00093C3.69293 22.006 3.69393 23.994 5.00093 24H19.0009C20.3089 23.994 20.3079 22.006 19.0009 22H13.0009V4.26803L17.8969 2.96203L15.0629 10.653C15.0219 10.764 15.0009 11.3 15.0009 11.3C15.0009 13.806 16.8719 15.867 19.2609 15.992C20.5099 16.058 21.6949 15.621 22.5989 14.763C23.4899 13.917 24.0009 12.727 24.0009 11.499C24.0009 11.499 23.9799 10.764 23.9389 10.653V10.654ZM6.57293 14H2.43493L4.51793 8.34703L6.57293 14ZM19.5009 4.39303L21.5669 10H17.4349L19.5009 4.39303Z" fill="#332969"/>
</g>
<defs>
<clipPath id="clip0_367_1877">
<rect width="24" height="24" fill="white"/>
</clipPath>
</defs>
</svg>
