<svg width="24" height="24" viewBox="0 0 24 24" fill="none" xmlns="http://www.w3.org/2000/svg">
<g clip-path="url(#clip0_367_1875)">
<path d="M15.091 15.997C21.662 15.964 24 12.484 24 9.49998C24 7.82298 22.812 6.41998 21.235 6.08098C21.371 5.69498 21.489 5.33998 21.568 5.07098C21.921 3.87798 21.693 2.61798 20.942 1.61298C20.176 0.588977 19.005 0.000976562 17.728 0.000976562H6.271C4.994 0.000976562 3.822 0.588977 3.056 1.61298C2.305 2.61798 2.077 3.87898 2.43 5.07098C2.51 5.33998 2.627 5.69498 2.764 6.08198C1.187 6.42098 0 7.82398 0 9.50098C0 12.485 2.339 15.965 8.909 15.998C8.965 16.3 9 16.608 9 16.922V20.001C9 21.827 7.464 21.993 7 22.001H6C5.447 22.001 5 22.448 5 23.001C5 23.554 5.447 24.001 6 24.001H18C18.553 24.001 19 23.554 19 23.001C19 22.448 18.553 22.001 18 22.001H17.008C16.536 21.993 15 21.827 15 20.001V16.921C15 16.608 15.035 16.3 15.091 15.998V15.997ZM20.452 7.98998C20.469 7.98998 20.483 7.99998 20.5 7.99998C21.327 7.99998 22 8.67298 22 9.49998C22 11.534 20.391 13.697 15.964 13.97C16.185 13.671 16.438 13.394 16.726 13.149C18.465 11.671 19.659 9.69598 20.452 7.98998ZM2 9.49998C2 8.67298 2.673 7.99998 3.5 7.99998C3.517 7.99998 3.531 7.99098 3.547 7.98998C4.341 9.69598 5.535 11.671 7.274 13.149C7.562 13.394 7.815 13.67 8.036 13.97C3.609 13.697 2 11.534 2 9.49998ZM9.792 9.76298C9.528 9.58098 9.417 9.24498 9.522 8.94098L10.041 7.33498L8.675 6.33498C8.348 6.09498 8.277 5.63598 8.517 5.30898C8.655 5.12098 8.875 5.00898 9.108 5.00898H10.789L11.3 3.41598C11.429 3.02898 11.847 2.82098 12.234 2.94998C12.454 3.02298 12.627 3.19598 12.7 3.41598L13.21 5.00898H14.891C15.296 5.00898 15.625 5.33698 15.625 5.74298C15.625 5.97798 15.513 6.19798 15.324 6.33598L13.958 7.33598L14.477 8.94198C14.601 9.32798 14.389 9.74198 14.002 9.86698C13.778 9.93898 13.533 9.89898 13.343 9.75998L12 8.77198L10.656 9.75898C10.4 9.94998 10.05 9.95098 9.792 9.76298Z" fill="#332969"/>
</g>
<defs>
<clipPath id="clip0_367_1875">
<rect width="24" height="24" fill="white"/>
</clipPath>
</defs>
</svg>
