<svg width="18" height="18" viewBox="0 0 18 18" fill="none" xmlns="http://www.w3.org/2000/svg">
<path d="M17.2508 7.27502C17.2508 6.22502 17.0258 5.10002 16.5758 4.20002C16.2758 3.82502 15.8258 3.52502 15.3008 3.45002C13.2008 3.22502 11.1008 3.15002 9.00078 3.22502C6.90078 3.22502 4.80078 3.30002 2.77578 3.45002C2.32578 3.52502 1.95078 3.67502 1.65078 3.97502C0.975781 4.57502 0.900781 5.70002 0.825781 6.52502C0.750781 8.17502 0.750781 9.75002 0.825781 11.4C0.825781 11.925 0.900781 12.375 1.05078 12.9C1.12578 13.275 1.35078 13.65 1.57578 13.95C1.87578 14.25 2.25078 14.475 2.70078 14.55C4.35078 14.775 5.92578 14.85 7.57578 14.775C10.2008 14.775 12.5258 14.775 15.2258 14.55C15.6758 14.475 16.0508 14.25 16.3508 13.95C16.5758 13.725 16.7258 13.5 16.8008 13.2C17.1008 12.375 17.1758 11.55 17.1758 10.65C17.2508 10.275 17.2508 7.72502 17.2508 7.27502ZM7.27578 11.175V6.52502L11.7008 8.85002C10.5008 9.52502 8.85078 10.275 7.27578 11.175Z" fill="white"/>
</svg>
