<svg width="13" height="12" viewBox="0 0 13 12" fill="none" xmlns="http://www.w3.org/2000/svg">
<g clip-path="url(#clip0_2301_1382)">
<path d="M12.0555 0.622451L0.509018 5.05793C0.509018 5.05793 -0.0387592 5.23958 0.00437287 5.57752C0.0475049 5.91546 0.491765 6.07176 0.491765 6.07176L3.39455 7.03067L3.39887 7.03489V7.03067L10.369 2.69234C10.369 2.69234 10.7701 2.45156 10.7572 2.69234C10.7572 2.69234 10.8305 2.73459 10.6149 2.93313C10.3992 3.13167 5.13709 7.76147 5.13709 7.76147L5.12846 7.85018L9.86436 11.407C10.6537 11.745 10.9427 11.0395 10.9427 11.0395L13.0001 0.88858C13.0001 0.212696 12.0512 0.622451 12.0555 0.622451Z" fill="white"/>
<path d="M6.94029 9.21042L5.06405 10.8875C5.06405 10.8875 4.9174 10.9973 4.75781 10.9297L5.11581 7.81641" fill="white"/>
</g>
<defs>
<clipPath id="clip0_2301_1382">
<rect width="13" height="11" fill="white" transform="translate(0 0.5)"/>
</clipPath>
</defs>
</svg>
