<svg width="18" height="10" viewBox="0 0 18 10" fill="none" xmlns="http://www.w3.org/2000/svg">
<g clip-path="url(#clip0_2301_1370)">
<path d="M0.172822 1.5125C0.0214558 1.13023 -0.171957 0.731695 0.286347 0.51616C1.21557 0.50396 2.14479 0.49176 3.07822 0.47956C3.48186 0.49176 3.66687 0.780495 3.8813 1.1831C4.50779 2.35024 5.15951 3.51331 5.94577 4.58285C6.20225 4.93259 6.63533 5.06679 6.9759 4.50965C7.01375 3.75732 7.05159 3.00498 7.08943 2.25264C6.96329 1.3783 6.64794 0.861829 6.09714 0.808962C5.78179 0.512093 6.00884 0.268092 6.71522 0.137958C7.83785 -0.0938439 8.81753 0.0118901 9.67948 0.117624C10.4069 0.162358 10.512 0.638161 10.4994 1.1831C10.4742 2.17944 10.4531 3.17984 10.4531 4.17618C10.6676 5.18879 11.2394 4.78212 11.6178 4.34292C12.2948 3.41165 12.8834 2.50477 13.3753 1.48403C13.8841 0.434826 14.0229 0.512093 14.3802 0.508027C15.2338 0.50396 16.1756 0.463293 16.8568 0.487693C18.2779 0.406359 18.114 1.01636 17.7145 1.66297C17.025 2.78944 16.1378 3.80612 15.3473 4.87972C14.868 5.51006 14.8764 5.90453 15.3852 6.24613C16.1378 7.04727 16.9535 7.79554 17.6388 8.64955C18.3831 9.58082 17.8365 9.83702 17.1427 9.90616C16.3144 9.90616 15.4861 9.90616 14.6578 9.90616C13.9514 9.91836 13.3123 9.74756 12.8624 9.01962C11.8238 7.68981 11.0502 7.32381 10.739 8.07208C10.6045 8.40148 10.491 8.84475 10.4952 9.27582C10.4994 9.87769 10.1252 9.92649 9.61641 9.94276C9.06981 9.94276 8.50218 10.0729 7.9724 9.94276C6.09714 9.48322 4.29756 8.63735 2.54423 5.72966C1.75376 4.47305 0.963292 3.09851 0.172822 1.5125Z" fill="white"/>
</g>
<defs>
<clipPath id="clip0_2301_1370">
<rect width="18" height="10" fill="white"/>
</clipPath>
</defs>
</svg>
