<svg width="18" height="18" viewBox="0 0 18 18" fill="none" xmlns="http://www.w3.org/2000/svg">
<path d="M17.528 13.2102L15.0108 10.6982C14.1117 9.80111 12.5834 10.16 12.2238 11.3262C11.9541 12.1337 11.0551 12.5822 10.246 12.4028C8.44795 11.9542 6.02061 9.62169 5.57111 7.73772C5.3014 6.93027 5.84081 6.03315 6.64992 5.76405C7.81864 5.4052 8.17825 3.88008 7.27923 2.98296L4.76199 0.471006C4.04278 -0.156982 2.96397 -0.156982 2.33466 0.471006L0.626529 2.17554C-1.0816 3.96979 0.806332 8.72456 5.0317 12.941C9.25706 17.1575 14.0218 19.1312 15.8199 17.337L17.528 15.6324C18.1573 14.9147 18.1573 13.8382 17.528 13.2102Z" fill="white"/>
</svg>
