<svg width="90" height="90" viewBox="0 0 90 90" fill="none" xmlns="http://www.w3.org/2000/svg">
<circle opacity="0.5" cx="45" cy="45" r="45" fill="white"/>
<circle cx="45.001" cy="45" r="31.4151" fill="#5D4F84"/>
<g clip-path="url(#clip0_227_1150)">
<path d="M45.4235 65.3774C56.4432 65.3774 65.3764 56.4442 65.3764 45.4245C65.3764 34.4049 56.4432 25.4717 45.4235 25.4717C34.4039 25.4717 25.4707 34.4049 25.4707 45.4245C25.4707 56.4442 34.4039 65.3774 45.4235 65.3774Z" fill="#332969"/>
<path d="M51.6182 44.0213L43.2332 38.2716C42.8568 37.9978 42.4461 37.8609 42.1381 37.8609C41.4878 37.8609 41.1113 38.3743 41.1113 39.1957V51.6191C41.1113 52.4748 41.4878 52.9539 42.1038 52.9539C42.4461 52.9539 42.8225 52.817 43.199 52.5432L51.584 46.7935C52.1316 46.417 52.4396 45.9379 52.4396 45.3903C52.4396 44.8427 52.1658 44.3978 51.6182 44.0213Z" fill="white"/>
</g>
<defs>
<clipPath id="clip0_227_1150">
<rect width="39.9057" height="39.9057" fill="white" transform="translate(25.4707 25.4717)"/>
</clipPath>
</defs>
</svg>
