<svg width="75" height="75" viewBox="0 0 75 75" fill="none" xmlns="http://www.w3.org/2000/svg">
<g clip-path="url(#clip0_1_227)">
<path d="M37.5 75C58.2107 75 75 58.2107 75 37.5C75 16.7893 58.2107 0 37.5 0C16.7893 0 0 16.7893 0 37.5C0 58.2107 16.7893 75 37.5 75Z" fill="#756A9A"/>
<path d="M46.4678 35.7395L36.0436 28.5915C35.5756 28.2511 35.065 28.0809 34.6821 28.0809C33.8737 28.0809 33.4056 28.7191 33.4056 29.7403V45.1851C33.4056 46.2488 33.8737 46.8444 34.6395 46.8444C35.065 46.8444 35.533 46.6743 36.001 46.3339L46.4252 39.1859C47.106 38.7178 47.4889 38.1222 47.4889 37.4414C47.4889 36.7606 47.1485 36.2075 46.4678 35.7395Z" fill="white"/>
</g>
<defs>
<clipPath id="clip0_1_227">
<rect width="75" height="75" fill="white"/>
</clipPath>
</defs>
</svg>
