<svg width="50" height="42" viewBox="0 0 50 42" fill="none" xmlns="http://www.w3.org/2000/svg">
<path d="M15.3743 20.5985C17.3351 21.4063 18.8503 22.7077 19.9198 24.5028C21.0784 26.2081 21.6578 28.2725 21.6578 30.6958C21.6578 33.927 20.6328 36.5747 18.5829 38.639C16.533 40.7034 13.9929 41.7355 10.9626 41.7355C7.75401 41.7355 5.12478 40.7034 3.07487 38.639C1.02496 36.5747 0 33.927 0 30.6958C0 29.0802 0.178253 27.5096 0.534759 25.9837C0.980392 24.4579 1.78253 22.1692 2.94118 19.1176L10.0267 0H20.7219L15.3743 20.5985ZM43.7166 20.5985C45.6774 21.4063 47.1925 22.7077 48.262 24.5028C49.4207 26.2081 50 28.2725 50 30.6958C50 33.927 48.975 36.5747 46.9251 38.639C44.8752 40.7034 42.3351 41.7355 39.3048 41.7355C36.0963 41.7355 33.467 40.7034 31.4171 38.639C29.3672 36.5747 28.3422 33.927 28.3422 30.6958C28.3422 29.0802 28.5205 27.5096 28.877 25.9837C29.3226 24.4579 30.1248 22.1692 31.2834 19.1176L38.369 0H49.0642L43.7166 20.5985Z" fill="#A59CC3"/>
</svg>
