<svg width="50" height="42" viewBox="0 0 50 42" fill="none" xmlns="http://www.w3.org/2000/svg">
<path d="M34.6257 21.271C32.6649 20.4581 31.1497 19.1484 30.0802 17.3419C28.9216 15.6258 28.3422 13.5484 28.3422 11.1097C28.3422 7.85806 29.3672 5.19355 31.4171 3.11613C33.467 1.03871 36.0071 2.5914e-06 39.0374 2.85632e-06C42.246 3.13682e-06 44.8752 1.03871 46.9251 3.11613C48.975 5.19355 50 7.85807 50 11.1097C50 12.7355 49.8217 14.3161 49.4652 15.8516C49.0196 17.3871 48.2175 19.6903 47.0588 22.7613L39.9733 42L29.2781 42L34.6257 21.271ZM6.28342 21.271C4.32264 20.4581 2.80748 19.1484 1.73797 17.3419C0.579317 15.6258 -1.32738e-06 13.5484 -1.11418e-06 11.1097C-8.29915e-07 7.85806 1.02496 5.19355 3.07486 3.11613C5.12477 1.03871 7.66488 1.13643e-07 10.6952 3.78561e-07C13.9037 6.59062e-07 16.533 1.03871 18.5829 3.11613C20.6328 5.19355 21.6578 7.85806 21.6578 11.1097C21.6578 12.7355 21.4795 14.3161 21.123 15.8516C20.6774 17.3871 19.8752 19.6903 18.7166 22.7613L11.631 42L0.935825 42L6.28342 21.271Z" fill="#A59CC4"/>
</svg>
