<svg width="20" height="18" viewBox="0 0 20 18" fill="none" xmlns="http://www.w3.org/2000/svg">
<g clip-path="url(#clip0_1_218)">
<path d="M18.5468 0.194848L0.783029 7.2513C0.783029 7.2513 -0.0597046 7.54028 0.00665237 8.07791C0.0730094 8.61555 0.756486 8.8642 0.756486 8.8642L5.22231 10.3897L5.22895 10.3965V10.3897L15.9522 3.48786C15.9522 3.48786 16.5694 3.10479 16.5495 3.48786C16.5495 3.48786 16.6623 3.55506 16.3305 3.87092C15.9987 4.18678 7.90314 11.5524 7.90314 11.5524L7.88986 11.6935L15.1759 17.3521C16.3902 17.8897 16.8348 16.7674 16.8348 16.7674L20 0.618235C20 -0.457034 18.5402 0.194848 18.5468 0.194848Z" fill="white"/>
<path d="M10.6768 13.8575L7.79023 16.5255C7.79023 16.5255 7.56461 16.7003 7.31909 16.5928L7.86985 11.6398" fill="white"/>
</g>
<defs>
<clipPath id="clip0_1_218">
<rect width="20" height="17.5" fill="white"/>
</clipPath>
</defs>
</svg>
